HIERARCHY
ROOT Hips
{
	OFFSET 0.000000 0.000000 0.000000
	CHANNELS 6 Xposition Yposition Zposition Xrotation Yrotation Zrotation
	JOINT LeftUpLeg_virtual
	{
		OFFSET 0.000000 0.000000 0.000000
		CHANNELS 3 Xrotation Yrotation Zrotation
		JOINT LeftUpLeg
		{
			OFFSET 10.205400 -3.823500 0.155100
			CHANNELS 3 Xrotation Yrotation Zrotation
			JOINT LeftLeg
			{
				OFFSET 0.708757 -12.982077 0.567790
				CHANNELS 3 Xrotation Yrotation Zrotation
				JOINT LeftFoot
				{
					OFFSET -0.708756 -10.717838 -2.184338
					CHANNELS 3 Xrotation Yrotation Zrotation
					JOINT LeftToeBase
					{
						OFFSET 0.108149 -7.191104 7.560241
						CHANNELS 3 Xrotation Yrotation Zrotation
						JOINT LeftToe_End
						{
							OFFSET 0.070230 0.081724 4.490308
							CHANNELS 3 Xrotation Yrotation Zrotation
							End Site
							{
								OFFSET 0 0 0
							}
						}
					}
				}
			}
		}
	}
	JOINT RightUpLeg_virtual
	{
		OFFSET 0.000000 0.000000 0.000000
		CHANNELS 3 Xrotation Yrotation Zrotation
		JOINT RightUpLeg
		{
			OFFSET -10.205400 -3.823500 0.005500
			CHANNELS 3 Xrotation Yrotation Zrotation
			JOINT RightLeg
			{
				OFFSET -0.708756 -12.982134 0.610632
				CHANNELS 3 Xrotation Yrotation Zrotation
				JOINT RightFoot
				{
					OFFSET 0.708754 -10.717769 -1.945823
					CHANNELS 3 Xrotation Yrotation Zrotation
					JOINT RightToeBase
					{
						OFFSET -0.108140 -7.191069 7.372968
						CHANNELS 3 Xrotation Yrotation Zrotation
						JOINT RightToe_End
						{
							OFFSET -0.070227 0.081735 4.479403
							CHANNELS 3 Xrotation Yrotation Zrotation
							End Site
							{
								OFFSET 0 0 0
							}
						}
					}
				}
			}
		}
	}
	JOINT Spine_virtual
	{
		OFFSET 0.000000 0.000000 0.000000
		CHANNELS 3 Xrotation Yrotation Zrotation
		JOINT Spine
		{
			OFFSET 0.000000 6.876099 0.125700
			CHANNELS 3 Xrotation Yrotation Zrotation
			JOINT Spine1
			{
				OFFSET 0.000000 5.730043 0.104720
				CHANNELS 3 Xrotation Yrotation Zrotation
				JOINT Spine1_split
				{
					OFFSET 0.000000 5.730043 0.104720
					CHANNELS 3 Xrotation Yrotation Zrotation
					JOINT Spine2
					{
						OFFSET 0.000000 5.730043 0.104720
						CHANNELS 3 Xrotation Yrotation Zrotation
						JOINT Neck_virtual
						{
							OFFSET 0.000000 0.000000 0.000000
							CHANNELS 3 Xrotation Yrotation Zrotation
							JOINT Neck
							{
								OFFSET 0.000000 10.314075 0.188496
								CHANNELS 3 Xrotation Yrotation Zrotation
								JOINT Head
								{
									OFFSET 0.000000 7.643700 -2.377400
									CHANNELS 3 Xrotation Yrotation Zrotation
									JOINT HeadTop_End
									{
										OFFSET 0.000000 43.788605 -13.619600
										CHANNELS 3 Xrotation Yrotation Zrotation
										End Site
										{
											OFFSET 0 0 0
										}
									}
								}
							}
						}
						JOINT LeftShoulder_virtual
						{
							OFFSET 0.000000 0.000000 0.000000
							CHANNELS 3 Xrotation Yrotation Zrotation
							JOINT LeftShoulder
							{
								OFFSET 2.196100 4.412489 0.087492
								CHANNELS 3 Xrotation Yrotation Zrotation
								JOINT LeftShoulder_split
								{
									OFFSET 2.196100 4.412489 0.087492
									CHANNELS 3 Xrotation Yrotation Zrotation
									JOINT LeftArm
									{
										OFFSET 8.771219 -2.981674 -0.026999
										CHANNELS 3 Xrotation Yrotation Zrotation
										JOINT LeftForeArm
										{
											OFFSET 8.512804 0.000000 -0.000000
											CHANNELS 3 Xrotation Yrotation Zrotation
											JOINT LeftHand
											{
												OFFSET 18.484802 0.000000 -0.000000
												CHANNELS 3 Xrotation Yrotation Zrotation
												End Site
												{
													OFFSET 0 0 0
												}
											}
										}
									}
								}
							}
						}
						JOINT RightShoulder_virtual
						{
							OFFSET 0.000000 0.000000 0.000000
							CHANNELS 3 Xrotation Yrotation Zrotation
							JOINT RightShoulder
							{
								OFFSET -2.196100 4.412496 0.070690
								CHANNELS 3 Xrotation Yrotation Zrotation
								JOINT RightShoulder_split
								{
									OFFSET -2.196100 4.412496 0.070690
									CHANNELS 3 Xrotation Yrotation Zrotation
									JOINT RightArm
									{
										OFFSET -8.771282 -2.981682 -0.094208
										CHANNELS 3 Xrotation Yrotation Zrotation
										JOINT RightForeArm
										{
											OFFSET -8.494598 0.000000 0.000000
											CHANNELS 3 Xrotation Yrotation Zrotation
											JOINT RightHand
											{
												OFFSET -18.483803 0.000000 0.000001
												CHANNELS 3 Xrotation Yrotation Zrotation
												End Site
												{
													OFFSET 0 0 0
												}
											}
										}
									}
								}
							}
						}
					}
				}
			}
		}
	}
}
MOTION
Frames: 6
Frame Time: 0.03333333
0.208595 33.487335 -0.123781 0.000000 0.000000 0.000000 0.431266 -7.548028 -0.957191 -10.754252 20.122712 17.420351 22.637180 7.809872 2.185827 -13.515661 6.230635 -17.334798 2.540691 0.471581 -1.289668 0.000000 0.000000 0.000000 0.934970 -6.757018 -0.900813 -13.902977 -20.198367 -8.968991 20.030370 10.690109 -2.311978 -11.613383 0.008515 4.690745 0.456916 -0.254179 0.777303 0.000000 0.000000 0.000000 0.628281 -9.247822 -1.095541 -0.568333 -0.702575 1.833859 -0.907698 -1.115357 1.015509 1.352787 1.454521 -0.370525 0.000000 0.000000 0.000000 -1.145848 -0.497439 0.910354 -5.277298 0.419438 1.339976 -1.150533 8.206145 0.361555 0.000000 0.000000 0.000000 -1.403767 -0.198382 0.582315 -0.549385 9.977933 -2.878773 -3.621932 -0.214165 -0.464082 41.898330 -65.595299 -28.000502 -0.476300 -27.976183 2.093616 0.000000 0.000000 0.000000 -0.311068 -0.326902 0.448815 3.944229 2.591661 3.414404 0.951064 2.379320 -1.253537 -2.367942 37.964336 66.075803 1.261008 25.189427 1.426890 0.000000 0.000000 0.000000 
0.216935 33.492321 -0.051785 0.000000 0.000000 0.000000 0.402230 -7.707089 -0.904493 -10.726348 20.157032 17.315402 22.487481 7.803749 2.230208 -13.678110 6.230666 -17.334892 2.566113 0.446359 -1.216477 0.000000 0.000000 0.000000 1.023401 -6.905266 -0.837652 -13.831996 -20.149516 -8.944654 20.029127 10.638075 -2.341520 -11.596922 -0.042532 4.341033 0.388480 -0.299313 0.906349 0.000000 0.000000 0.000000 0.674396 -9.268604 -1.132576 -0.634010 -0.751065 1.860530 -0.870313 -1.121953 1.015520 1.376839 1.376145 -0.315086 0.000000 0.000000 0.000000 -1.148479 -0.495189 0.937610 -5.402043 0.544634 1.220090 -1.206468 8.419047 0.409762 0.000000 0.000000 0.000000 -1.321519 -0.203301 0.590945 -0.528023 9.984517 -2.972633 -3.859775 -0.131609 -0.282378 42.122620 -65.619629 -27.864832 -0.355102 -28.204207 2.108959 0.000000 0.000000 0.000000 -0.280491 -0.303146 0.483574 3.918684 2.740424 2.998961 1.181055 2.851369 -1.462179 -2.918251 37.908206 66.493114 1.116875 25.084187 1.340316 0.000000 0.000000 0.000000 
0.247792 33.493130 0.007544 0.000000 0.000000 0.000000 0.440979 -7.990962 -0.768587 -10.562753 20.266384 17.076499 22.313115 7.834759 2.326205 -13.823891 6.243951 -17.211542 2.577817 0.419954 -1.157631 0.000000 0.000000 0.000000 1.072220 -7.053196 -0.709290 -13.968527 -20.024421 -9.141834 20.356665 10.581010 -2.380685 -11.721651 -0.037054 3.953656 0.323805 -0.315812 0.994087 0.000000 0.000000 0.000000 0.699230 -9.419810 -1.089656 -0.691307 -0.824220 1.852878 -0.807316 -1.151122 1.019995 1.315849 1.120537 -0.363522 0.000000 0.000000 0.000000 -1.066631 -0.506785 0.955918 -5.602095 0.687583 0.944317 -1.198339 8.658152 0.346957 0.000000 0.000000 0.000000 -1.171204 -0.243978 0.601640 -0.514246 10.034574 -2.975735 -3.921038 -0.079691 -0.195698 41.823253 -65.831522 -28.243990 -0.303846 -28.499084 2.014113 0.000000 0.000000 0.000000 -0.220939 -0.306763 0.533897 3.874741 2.886820 2.374886 1.017910 3.293718 -1.602780 -3.574623 38.733077 67.042494 0.948353 23.877353 1.161978 0.000000 0.000000 0.000000 
0.298758 33.487625 0.047802 0.000000 0.000000 0.000000 0.522490 -8.308567 -0.554150 -10.329325 20.454243 16.729160 22.127581 7.901118 2.457058 -13.911288 6.263959 -16.932715 2.599272 0.394225 -1.142377 0.000000 0.000000 0.000000 1.116570 -7.175297 -0.511379 -14.366162 -19.847172 -9.583044 20.959337 10.583370 -2.401410 -11.867744 0.065594 3.758631 0.245754 -0.290726 1.016217 0.000000 0.000000 0.000000 0.690644 -9.631918 -0.960869 -0.716411 -0.882240 1.816069 -0.717273 -1.181766 1.014405 1.166796 0.754259 -0.424608 0.000000 0.000000 0.000000 -0.936189 -0.517320 0.943310 -5.864104 0.799173 0.608674 -1.146019 8.881714 0.184046 0.000000 0.000000 0.000000 -0.972075 -0.297073 0.595757 -0.513588 10.069273 -2.877480 -3.880511 -0.018749 -0.137664 41.019787 -66.225897 -28.993671 -0.304260 -28.818091 1.857656 0.000000 0.000000 0.000000 -0.116250 -0.324128 0.573129 3.831904 3.022660 1.763645 0.707594 3.493368 -1.560952 -4.283712 40.096550 67.532847 0.774889 22.283236 0.936365 0.000000 0.000000 0.000000 
0.362630 33.480564 0.062355 0.000000 0.000000 0.000000 0.629752 -8.582478 -0.282803 -10.102095 20.702047 16.329307 21.938947 7.952128 2.593309 -13.910309 6.254861 -16.527275 2.619104 0.368953 -1.173405 0.000000 0.000000 0.000000 1.170481 -7.302072 -0.259053 -14.900621 -19.625152 -10.161930 21.647550 10.663440 -2.412232 -12.009663 0.241244 3.812527 0.064763 -0.242164 0.959731 0.000000 0.000000 0.000000 0.659034 -9.853543 -0.773507 -0.708633 -0.864528 1.765771 -0.599067 -1.176763 0.973128 0.944915 0.506946 -0.518033 0.000000 0.000000 0.000000 -0.775089 -0.496537 0.876632 -6.189530 0.846215 0.322746 -1.110311 8.997992 -0.024464 0.000000 0.000000 0.000000 -0.770450 -0.311879 0.559155 -0.532036 10.055208 -2.688024 -3.776681 0.042085 -0.207230 39.773482 -66.817159 -29.933721 -0.306661 -29.045072 1.710374 0.000000 0.000000 0.000000 0.044064 -0.319688 0.567426 3.806976 3.127134 1.412221 0.388801 3.473593 -1.465491 -5.168577 41.624320 67.837248 0.609253 20.959385 0.762180 0.000000 0.000000 0.000000 
0.432693 33.464165 0.056868 0.000000 0.000000 0.000000 0.735587 -8.827025 0.013622 -9.952308 20.960584 15.953918 21.755493 7.906368 2.702951 -13.818688 6.185990 -16.107736 2.587767 0.348164 -1.217406 0.000000 0.000000 0.000000 1.233745 -7.421843 0.016830 -15.439028 -19.336923 -10.748866 22.262942 10.749522 -2.433971 -12.218046 0.417746 3.991728 -0.159835 -0.182693 0.843819 0.000000 0.000000 0.000000 0.654127 -10.007547 -0.569165 -0.669009 -0.701330 1.715143 -0.449344 -1.093364 0.883403 0.798297 0.458135 -0.496992 0.000000 0.000000 0.000000 -0.617167 -0.401959 0.760226 -6.570102 0.806853 0.172129 -1.152010 8.936450 -0.230484 0.000000 0.000000 0.000000 -0.610174 -0.254121 0.494633 -0.566481 9.953503 -2.437598 -3.768622 0.117028 -0.399245 38.416696 -67.568903 -30.734871 -0.282226 -29.018626 1.625904 0.000000 0.000000 0.000000 0.220367 -0.260502 0.495968 3.809221 3.227824 1.407417 0.162750 3.385312 -1.201613 -6.461268 42.927274 67.865477 0.464731 19.971500 0.672198 0.000000 0.000000 0.000000 
